<svg width="21" height="21" viewBox="0 0 21 21" fill="none" xmlns="http://www.w3.org/2000/svg">
<path fill-rule="evenodd" clip-rule="evenodd" d="M10.5001 0.214295C9.71109 0.214295 9.0715 0.85389 9.0715 1.64287V9.07144H1.64293C0.853949 9.07144 0.214356 9.71103 0.214355 10.5C0.214355 11.289 0.85395 11.9286 1.64293 11.9286H9.0715V19.3572C9.0715 20.1461 9.71109 20.7857 10.5001 20.7857C11.289 20.7857 11.9286 20.1461 11.9286 19.3572V11.9286H19.3572C20.1462 11.9286 20.7858 11.289 20.7858 10.5C20.7858 9.71103 20.1462 9.07144 19.3572 9.07144H11.9286V1.64287C11.9286 0.853889 11.289 0.214295 10.5001 0.214295Z" fill="#8980AE"/>
</svg>
