<svg width="19" height="20" viewBox="0 0 19 20" fill="none" xmlns="http://www.w3.org/2000/svg">
<path d="M10.2889 6.07141C10.2889 5.86303 10.2061 5.66318 10.0587 5.51583C9.91138 5.36848 9.71153 5.2857 9.50315 5.2857C9.29476 5.2857 9.09491 5.36848 8.94756 5.51583C8.80021 5.66318 8.71743 5.86303 8.71743 6.07141V9.21427H5.57458C5.3662 9.21427 5.16635 9.29705 5.019 9.4444C4.87165 9.59175 4.78887 9.7916 4.78887 9.99998C4.78887 10.2084 4.87165 10.4082 5.019 10.5556C5.16635 10.7029 5.3662 10.7857 5.57458 10.7857H8.71743V13.9286C8.71743 14.1369 8.80021 14.3368 8.94756 14.4841C9.09491 14.6315 9.29476 14.7143 9.50315 14.7143C9.71153 14.7143 9.91138 14.6315 10.0587 14.4841C10.2061 14.3368 10.2889 14.1369 10.2889 13.9286V10.7857H13.4317C13.6401 10.7857 13.8399 10.7029 13.9873 10.5556C14.1346 10.4082 14.2174 10.2084 14.2174 9.99998C14.2174 9.7916 14.1346 9.59175 13.9873 9.4444C13.8399 9.29705 13.6401 9.21427 13.4317 9.21427H10.2889V6.07141ZM9.50315 0.571412C7.86737 0.570861 6.25959 0.995893 4.83779 1.80474C3.41598 2.6136 2.22907 3.77844 1.39368 5.18481C0.558291 6.59119 0.103161 8.19071 0.073013 9.82621C0.0428647 11.4617 0.438735 13.0769 1.22173 14.5131L0.106014 18.426C0.0667556 18.5634 0.0657097 18.7089 0.102989 18.8468C0.140269 18.9848 0.214462 19.1099 0.317584 19.2089C0.420705 19.3078 0.548851 19.3767 0.688229 19.4082C0.827606 19.4397 0.972939 19.4326 1.10858 19.3877L4.78258 18.1636C6.03479 18.8872 7.43667 19.313 8.87978 19.4081C10.3229 19.5033 11.7686 19.2651 13.1049 18.7122C14.4413 18.1592 15.6325 17.3063 16.5865 16.2193C17.5405 15.1323 18.2316 13.8404 18.6064 12.4435C18.9812 11.0467 19.0297 9.58238 18.748 8.16382C18.4664 6.74527 17.8622 5.41051 16.9822 4.26283C16.1021 3.11514 14.9699 2.18527 13.673 1.54517C12.3761 0.905074 10.9494 0.571895 9.50315 0.571412ZM1.64601 9.99998C1.64627 8.25665 2.22631 6.5629 3.29483 5.1854C4.36334 3.8079 5.85963 2.82489 7.54814 2.39111C9.23665 1.95733 11.0215 2.09744 12.6216 2.78936C14.2218 3.48128 15.5463 4.68573 16.3868 6.21308C17.2273 7.74043 17.536 9.50393 17.2642 11.226C16.9925 12.948 16.1557 14.5307 14.8857 15.725C13.6157 16.9193 11.9846 17.6573 10.2491 17.8228C8.51366 17.9883 6.77244 17.572 5.29958 16.6393C5.20106 16.5768 5.08987 16.5371 4.97408 16.5229C4.85829 16.5088 4.7408 16.5206 4.63015 16.5576L2.02473 17.4266L2.82615 14.6278C2.85535 14.5248 2.86317 14.4168 2.84912 14.3106C2.83506 14.2044 2.79944 14.1022 2.74444 14.0103C2.02482 12.7964 1.64539 11.4111 1.64601 9.99998Z" fill="#070C2B"/>
</svg>
