<svg width="101" height="100" viewBox="0 0 101 100" fill="none" xmlns="http://www.w3.org/2000/svg">
<g clip-path="url(#clip0_260_3542)">
<rect x="0.5" width="100" height="100" fill="url(#paint0_linear_260_3542)"/>
<path fill-rule="evenodd" clip-rule="evenodd" d="M77.2239 27.309C75.4411 29.0927 73.2069 29.7469 72.2336 28.7728C71.2594 27.7995 71.9137 25.5661 73.6973 23.7825C75.4793 22.0005 77.7127 21.3454 78.6876 22.3187C79.6609 23.2937 79.0059 25.5271 77.2239 27.309ZM31.9453 34.8314L66.1749 69.0602L74.6918 60.5442L69.4138 55.2679C65.2271 51.0811 65.2271 44.2944 69.4138 40.1077C74.0834 35.4398 77.2222 36.5591 81.8485 31.9336C87.1765 26.6056 88.636 19.426 85.1078 15.8986C81.5795 12.3712 74.4008 13.8307 69.0727 19.1579C64.4473 23.7842 65.5665 26.9229 60.8987 31.5925C56.7119 35.7793 49.9252 35.7793 45.7393 31.5925L40.4622 26.3145L31.9453 34.8314Z" fill="white"/>
<path fill-rule="evenodd" clip-rule="evenodd" d="M21.4881 113.787C30.6176 104.602 60.8609 74.4125 66.1804 69.054L31.9508 34.8226L-12.8213 79.4759L21.4881 113.787Z" fill="url(#paint1_linear_260_3542)"/>
</g>
<defs>
<linearGradient id="paint0_linear_260_3542" x1="50.5" y1="0" x2="50.5" y2="100" gradientUnits="userSpaceOnUse">
<stop stop-color="#5022FF"/>
<stop offset="1" stop-color="#DB00FF"/>
</linearGradient>
<linearGradient id="paint1_linear_260_3542" x1="48.0432" y1="52.2535" x2="8.77064" y2="91.0641" gradientUnits="userSpaceOnUse">
<stop offset="0.326799" stop-color="#F97DFF"/>
<stop offset="1" stop-color="#FFD0F7"/>
</linearGradient>
<clipPath id="clip0_260_3542">
<rect x="0.5" width="100" height="100" rx="25" fill="white"/>
</clipPath>
</defs>
</svg>
