<svg width="14" height="14" viewBox="0 0 14 14" fill="none" xmlns="http://www.w3.org/2000/svg">
<path fill-rule="evenodd" clip-rule="evenodd" d="M13.364 0.636025C12.8758 0.14787 12.0843 0.147869 11.5962 0.636025L7 5.23222L2.40381 0.636024C1.91565 0.147869 1.12419 0.14787 0.63604 0.636024C0.147884 1.12418 0.147884 1.91564 0.636039 2.40379L5.23223 6.99999L0.636039 11.5962C0.147884 12.0843 0.147883 12.8758 0.636039 13.3639C1.12419 13.8521 1.91565 13.8521 2.40381 13.3639L7 8.76775L11.5962 13.3639C12.0843 13.8521 12.8758 13.8521 13.364 13.3639C13.8521 12.8758 13.8521 12.0843 13.364 11.5962L8.76777 6.99999L13.364 2.40379C13.8521 1.91564 13.8521 1.12418 13.364 0.636025Z" fill="#070C2B"/>
</svg>
