<svg width="16" height="18" viewBox="0 0 16 18" fill="none" xmlns="http://www.w3.org/2000/svg">
<path d="M15.7137 6.37704C15.7049 6.29829 15.6876 6.2207 15.6623 6.14561V6.06847C15.622 5.9798 15.567 5.89863 15.4994 5.82847L10.3566 0.68561C10.2864 0.618085 10.2053 0.563011 10.1166 0.522752C10.091 0.518873 10.065 0.518873 10.0394 0.522752C9.95218 0.473229 9.8561 0.441202 9.75658 0.428467H6.28516C5.60317 0.428467 4.94912 0.699384 4.46688 1.18162C3.98465 1.66386 3.71373 2.31791 3.71373 2.9999V3.85704H2.85658C2.1746 3.85704 1.52055 4.12796 1.03831 4.61019C0.556074 5.09243 0.285156 5.74648 0.285156 6.42847V14.9999C0.285156 15.6819 0.556074 16.3359 1.03831 16.8182C1.52055 17.3004 2.1746 17.5713 2.85658 17.5713H9.71373C10.3957 17.5713 11.0498 17.3004 11.532 16.8182C12.0142 16.3359 12.2852 15.6819 12.2852 14.9999V14.1428H13.1423C13.8243 14.1428 14.4783 13.8718 14.9606 13.3896C15.4428 12.9074 15.7137 12.2533 15.7137 11.5713V6.37704ZM10.5709 3.35132L12.7909 5.57132H11.428C11.2007 5.57132 10.9827 5.48102 10.8219 5.32027C10.6612 5.15953 10.5709 4.94151 10.5709 4.71418V3.35132ZM10.5709 14.9999C10.5709 15.2272 10.4806 15.4452 10.3198 15.606C10.1591 15.7667 9.94106 15.857 9.71373 15.857H2.85658C2.62926 15.857 2.41124 15.7667 2.25049 15.606C2.08975 15.4452 1.99944 15.2272 1.99944 14.9999V6.42847C1.99944 6.20114 2.08975 5.98312 2.25049 5.82238C2.41124 5.66163 2.62926 5.57132 2.85658 5.57132H3.71373V11.5713C3.71373 12.2533 3.98465 12.9074 4.46688 13.3896C4.94912 13.8718 5.60317 14.1428 6.28516 14.1428H10.5709V14.9999ZM13.9994 11.5713C13.9994 11.7987 13.9091 12.0167 13.7484 12.1774C13.5876 12.3382 13.3696 12.4285 13.1423 12.4285H6.28516C6.05783 12.4285 5.83981 12.3382 5.67906 12.1774C5.51832 12.0167 5.42801 11.7987 5.42801 11.5713V2.9999C5.42801 2.77257 5.51832 2.55455 5.67906 2.3938C5.83981 2.23306 6.05783 2.14275 6.28516 2.14275H8.85658V4.71418C8.85658 5.39617 9.1275 6.05022 9.60974 6.53246C10.092 7.01469 10.746 7.28561 11.428 7.28561H13.9994V11.5713Z" fill="#070C2B"/>
</svg>
