<svg width="22" height="22" viewBox="0 0 22 22" fill="none" xmlns="http://www.w3.org/2000/svg">
<path d="M11 21.4037C9.63074 21.4037 8.28833 21.1354 7.01304 20.6122C5.75117 20.089 4.61012 19.3243 3.64359 18.3584C2.67705 17.3925 1.91188 16.2522 1.38834 14.9777C0.864796 13.7032 0.596313 12.3751 0.596313 10.9933C0.596313 9.6115 0.864796 8.28337 1.38834 7.0089C1.91188 5.73443 2.67705 4.60753 3.64359 3.64162C4.61012 2.67571 5.75117 1.91103 7.01304 1.38783C8.28833 0.864623 9.61732 0.596313 11 0.596313C13.7788 0.596313 16.3965 1.68297 18.3564 3.64162C20.3163 5.60028 21.4037 8.21629 21.4037 10.9933C21.4037 13.7703 20.3163 16.3863 18.3564 18.345C16.3965 20.3036 13.7788 21.3903 11 21.3903V21.4037ZM11 3.29282C9.97977 3.29282 8.98638 3.49405 8.0467 3.8831C7.10701 4.27215 6.26129 4.8356 5.53639 5.56003C4.81148 6.28447 4.24767 7.11623 3.85837 8.06872C3.46907 9.0078 3.26771 10.0005 3.26771 11.0201C3.26771 12.0397 3.46907 13.0324 3.85837 13.9715C4.24767 14.9106 4.81148 15.7558 5.53639 16.4802C6.26129 17.2046 7.10701 17.7681 8.0467 18.1571C10.8926 19.3377 14.2755 18.6669 16.4636 16.4802C17.9268 15.0179 18.7189 13.0861 18.7189 11.0201C18.7189 8.95414 17.9134 7.02232 16.4636 5.56003C15.0004 4.09775 13.0673 3.30624 11 3.30624V3.29282ZM16.034 12.3483H11C10.2617 12.3483 9.65759 11.7446 9.65759 11.0067V5.97591C9.65759 5.23806 10.2617 4.63437 11 4.63437C11.7383 4.63437 12.3424 5.23806 12.3424 5.97591V9.66516H16.034C16.7724 9.66516 17.3765 10.2689 17.3765 11.0067C17.3765 11.7446 16.7724 12.3483 16.034 12.3483Z" fill="#070C2B"/>
</svg>
