<svg width="14" height="15" viewBox="0 0 14 15" fill="none" xmlns="http://www.w3.org/2000/svg">
<path d="M5.0714 2.632C5.47007 1.46533 7.08207 1.43 7.55474 2.526L7.59474 2.63266L8.13274 4.206C8.25603 4.56682 8.45527 4.897 8.71702 5.17428C8.97877 5.45155 9.29694 5.66947 9.65007 5.81333L9.79474 5.86733L11.3681 6.40466C12.5347 6.80333 12.5701 8.41533 11.4747 8.88799L11.3681 8.928L9.79474 9.466C9.43379 9.58921 9.10348 9.78841 8.82608 10.0502C8.54869 10.3119 8.33067 10.6301 8.18674 10.9833L8.13274 11.1273L7.5954 12.7013C7.19674 13.868 5.58474 13.9033 5.11274 12.808L5.0714 12.7013L4.53407 11.128C4.41086 10.767 4.21165 10.4367 3.9499 10.1593C3.68814 9.88195 3.36993 9.66393 3.01674 9.51999L2.87274 9.466L1.2994 8.92866C0.132069 8.52999 0.0967363 6.91799 1.19274 6.44599L1.2994 6.40466L2.87274 5.86733C3.23356 5.74403 3.56374 5.54479 3.84102 5.28304C4.11829 5.02129 4.33621 4.70312 4.48007 4.34999L4.53407 4.206L5.0714 2.632ZM11.6667 0.333328C11.7915 0.333328 11.9137 0.368314 12.0195 0.434309C12.1253 0.500305 12.2105 0.594663 12.2654 0.706662L12.2974 0.784662L12.5307 1.46866L13.2154 1.702C13.3404 1.74446 13.45 1.82307 13.5302 1.92787C13.6105 2.03267 13.6578 2.15894 13.6663 2.29068C13.6747 2.42241 13.6438 2.55368 13.5775 2.66785C13.5113 2.78202 13.4126 2.87395 13.2941 2.93199L13.2154 2.964L12.5314 3.19733L12.2981 3.88199C12.2555 4.00695 12.1769 4.11646 12.072 4.19666C11.9672 4.27685 11.8409 4.32412 11.7092 4.33248C11.5774 4.34083 11.4462 4.30989 11.3321 4.24358C11.2179 4.17727 11.1261 4.07857 11.0681 3.96L11.0361 3.88199L10.8027 3.19799L10.1181 2.96466C9.99308 2.9222 9.88351 2.84359 9.80325 2.73879C9.72299 2.63399 9.67564 2.50772 9.66722 2.37598C9.65879 2.24425 9.68967 2.11297 9.75592 1.9988C9.82218 1.88463 9.92084 1.7927 10.0394 1.73466L10.1181 1.70266L10.8021 1.46933L11.0354 0.784662C11.0804 0.652945 11.1654 0.538601 11.2786 0.457661C11.3918 0.376721 11.5276 0.333245 11.6667 0.333328Z" fill="url(#paint0_linear_383_8073)"/>
<defs>
<linearGradient id="paint0_linear_383_8073" x1="1.55467" y1="1.76704" x2="11.8225" y2="12.7643" gradientUnits="userSpaceOnUse">
<stop stop-color="#5720FF"/>
<stop offset="1" stop-color="#D302FF"/>
</linearGradient>
</defs>
</svg>
