<svg width="15" height="20" viewBox="0 0 15 20" fill="none" xmlns="http://www.w3.org/2000/svg">
<path fill-rule="evenodd" clip-rule="evenodd" d="M10.9013 19.2308H4.57179C3.52251 19.2308 2.51621 18.8139 1.77425 18.072C1.0323 17.33 0.615479 16.3237 0.615479 15.2745V4.72553C0.615479 3.67626 1.0323 2.66995 1.77425 1.928C2.51621 1.18605 3.52251 0.769226 4.57179 0.769226H8.27148C9.0538 0.769402 9.80949 1.05344 10.3982 1.56861L13.7536 4.504C14.1004 4.80727 14.3784 5.1812 14.5688 5.60071C14.7592 6.02022 14.8577 6.4756 14.8576 6.9363V15.2745C14.8576 15.794 14.7553 16.3085 14.5565 16.7885C14.3577 17.2685 14.0662 17.7046 13.6989 18.072C13.3315 18.4394 12.8953 18.7308 12.4153 18.9296C11.9353 19.1284 11.4209 19.2308 10.9013 19.2308ZM10.9013 17.3846H4.57179C4.29468 17.3846 4.02028 17.33 3.76427 17.224C3.50825 17.1179 3.27563 16.9625 3.07968 16.7666C2.88374 16.5706 2.7283 16.338 2.62226 16.082C2.51621 15.826 2.46163 15.5516 2.46163 15.2745V4.72553C2.46163 4.16589 2.68395 3.62916 3.07968 3.23343C3.47541 2.8377 4.01214 2.61538 4.57179 2.61538H8.27148C8.60661 2.61551 8.93031 2.73719 9.18255 2.95784L12.5379 5.89323C12.6867 6.02324 12.806 6.18359 12.8876 6.3635C12.9693 6.54341 13.0115 6.73872 13.0115 6.9363V15.2745C13.0115 15.5516 12.9569 15.826 12.8509 16.082C12.7448 16.338 12.5894 16.5706 12.3934 16.7666C12.1975 16.9625 11.9649 17.1179 11.7088 17.224C11.4528 17.33 11.1784 17.3846 10.9013 17.3846Z" fill="#070C2B"/>
<path fill-rule="evenodd" clip-rule="evenodd" d="M3.38477 10C3.38477 9.7552 3.48202 9.52041 3.65513 9.3473C3.82824 9.17419 4.06303 9.07694 4.30784 9.07694H8.92323C9.16804 9.07694 9.40283 9.17419 9.57594 9.3473C9.74905 9.52041 9.8463 9.7552 9.8463 10C9.8463 10.2448 9.74905 10.4796 9.57594 10.6527C9.40283 10.8258 9.16804 10.9231 8.92323 10.9231H4.30784C4.06303 10.9231 3.82824 10.8258 3.65513 10.6527C3.48202 10.4796 3.38477 10.2448 3.38477 10ZM3.38477 13.6923C3.38477 13.4475 3.48202 13.2127 3.65513 13.0396C3.82824 12.8665 4.06303 12.7692 4.30784 12.7692H7.19246C7.43727 12.7692 7.67206 12.8665 7.84517 13.0396C8.01828 13.2127 8.11554 13.4475 8.11554 13.6923C8.11554 13.9371 8.01828 14.1719 7.84517 14.345C7.67206 14.5181 7.43727 14.6154 7.19246 14.6154H4.30784C4.06303 14.6154 3.82824 14.5181 3.65513 14.345C3.48202 14.1719 3.38477 13.9371 3.38477 13.6923ZM8.92323 1.69232C9.16804 1.69232 9.40283 1.78957 9.57594 1.96268C9.74905 2.1358 9.8463 2.37058 9.8463 2.6154V5.38463C9.8463 5.62945 9.94356 5.86423 10.1167 6.03734C10.2898 6.21045 10.5246 6.30771 10.7694 6.30771H13.0771C13.3219 6.30771 13.5567 6.40496 13.7298 6.57807C13.9029 6.75118 14.0002 6.98597 14.0002 7.23078C14.0002 7.4756 13.9029 7.71039 13.7298 7.8835C13.5567 8.05661 13.3219 8.15386 13.0771 8.15386H10.7694C10.0349 8.15386 9.33057 7.8621 8.81124 7.34277C8.29191 6.82344 8.00015 6.11908 8.00015 5.38463V2.6154C8.00015 2.37058 8.0974 2.1358 8.27051 1.96268C8.44362 1.78957 8.67841 1.69232 8.92323 1.69232Z" fill="#070C2B"/>
</svg>
