<svg width="23" height="20" viewBox="0 0 23 20" fill="none" xmlns="http://www.w3.org/2000/svg">
<path d="M20.5383 2.15734C20.8417 1.84503 20.8417 1.36235 20.5383 1.05003C20.2349 0.737716 19.7661 0.737716 19.4627 1.05003L17.6975 2.86716C16.8149 2.10056 14.8842 0.879679 12.0157 0.879679C8.09916 0.879679 5.50651 3.29305 3.68615 5.42249C2.74838 6.5298 1.86578 7.69389 1.36932 8.57406C0.872852 9.45423 0.845271 10.5331 1.31415 11.4417C1.67271 12.1515 2.14159 12.8613 2.7208 13.5144C3.6034 14.5933 4.51359 15.4734 5.06521 15.9845L3.57582 17.5177C3.27243 17.83 3.27243 18.3127 3.57582 18.625C3.71373 18.767 3.9068 18.8522 4.09987 18.8522C4.29294 18.8522 4.48601 18.767 4.65149 18.625L20.5383 2.15734ZM3.87922 12.4922C3.38275 11.9244 2.99661 11.2997 2.66564 10.7035C2.44499 10.2776 2.44499 9.76654 2.69322 9.36905C3.13452 8.57406 3.96196 7.46675 4.84456 6.44462C6.5546 4.45714 8.76111 2.44127 12.0433 2.44127C14.3601 2.44127 15.9047 3.37822 16.6494 4.00286L14.5532 6.18908C13.8912 5.7632 13.0914 5.53606 12.2364 5.53606C9.75404 5.53606 7.71302 7.6371 7.71302 10.1924C7.71302 11.0726 7.96125 11.896 8.37497 12.5774L6.14088 14.8772C5.61684 14.3945 4.73424 13.5428 3.87922 12.4922ZM9.22999 10.164C9.22999 8.46049 10.5815 7.06925 12.2364 7.06925C12.6501 7.06925 13.0638 7.15443 13.4224 7.32479L9.47822 11.4133C9.31274 11.0158 9.22999 10.6183 9.22999 10.164Z" fill="#070C2B"/>
<path d="M22.7447 8.8297C22.524 8.40381 22.2758 7.97792 22.0276 7.60882C21.338 6.61508 20.8416 5.99044 20.814 5.96205C20.5382 5.62134 20.0693 5.56455 19.7383 5.84848C19.4073 6.1324 19.3522 6.61508 19.628 6.95579C19.628 6.95579 20.1244 7.58042 20.7588 8.54577C20.9795 8.85809 21.2001 9.22719 21.3656 9.59629C21.5035 9.85183 21.5035 10.1358 21.3656 10.3629C21.007 11.1295 20.152 12.6059 18.773 14.0823C16.7319 16.2401 14.0841 17.6314 11.988 17.6314C10.8295 17.6314 9.42289 17.2055 9.42289 17.1771C9.00917 17.0635 8.59545 17.2907 8.48513 17.6882C8.3748 18.0857 8.59545 18.5399 8.98159 18.6535C9.03675 18.6819 10.6089 19.1646 11.988 19.1646C14.4979 19.1646 17.5042 17.6314 19.8486 15.1328C21.3104 13.5996 22.193 12.0381 22.7171 11.0443C23.1032 10.3345 23.0756 9.51112 22.7447 8.8297Z" fill="#070C2B"/>
</svg>
