<svg width="24" height="24" viewBox="0 0 24 24" fill="none" xmlns="http://www.w3.org/2000/svg">
<path fill-rule="evenodd" clip-rule="evenodd" d="M14.9011 21.2308H8.57154C7.52226 21.2308 6.51596 20.814 5.77401 20.0721C5.03206 19.3301 4.61523 18.3238 4.61523 17.2745V6.72559C4.61523 5.67632 5.03206 4.67001 5.77401 3.92806C6.51596 3.18611 7.52226 2.76929 8.57154 2.76929H12.2712C13.0536 2.76946 13.8092 3.0535 14.398 3.56867L17.7534 6.50406C18.1002 6.80733 18.3781 7.18126 18.5685 7.60077C18.7589 8.02028 18.8574 8.47566 18.8574 8.93636V17.2745C18.8574 17.7941 18.7551 18.3085 18.5562 18.7885C18.3574 19.2685 18.066 19.7047 17.6986 20.0721C17.3312 20.4394 16.8951 20.7308 16.4151 20.9297C15.9351 21.1285 15.4206 21.2308 14.9011 21.2308ZM14.9011 19.3847H8.57154C8.29443 19.3847 8.02004 19.3301 7.76402 19.224C7.50801 19.118 7.27538 18.9626 7.07944 18.7666C6.88349 18.5707 6.72806 18.3381 6.62201 18.082C6.51597 17.826 6.46139 17.5516 6.46139 17.2745V6.72559C6.46139 6.16595 6.68371 5.62922 7.07944 5.23349C7.47517 4.83776 8.01189 4.61544 8.57154 4.61544H12.2712C12.6064 4.61558 12.9301 4.73725 13.1823 4.9579L16.5377 7.89329C16.6865 8.0233 16.8057 8.18365 16.8874 8.36356C16.9691 8.54347 17.0113 8.73878 17.0112 8.93636V17.2745C17.0112 17.5516 16.9567 17.826 16.8506 18.082C16.7446 18.3381 16.5891 18.5707 16.3932 18.7666C16.1972 18.9626 15.9646 19.118 15.7086 19.224C15.4526 19.3301 15.1782 19.3847 14.9011 19.3847Z" fill="#070C2B"/>
<path fill-rule="evenodd" clip-rule="evenodd" d="M12.9231 3.69238C13.1679 3.69238 13.4027 3.78964 13.5758 3.96275C13.7489 4.13586 13.8462 4.37064 13.8462 4.61546V7.38469C13.8462 7.62951 13.9434 7.86429 14.1165 8.0374C14.2896 8.21051 14.5244 8.30777 14.7692 8.30777H17.0769C17.3217 8.30777 17.5565 8.40502 17.7296 8.57813C17.9027 8.75124 18 8.98603 18 9.23084C18 9.47566 17.9027 9.71045 17.7296 9.88356C17.5565 10.0567 17.3217 10.1539 17.0769 10.1539H14.7692C14.0348 10.1539 13.3304 9.86216 12.8111 9.34283C12.2918 8.8235 12 8.11914 12 7.38469V4.61546C12 4.37064 12.0973 4.13586 12.2704 3.96275C12.4435 3.78964 12.6783 3.69238 12.9231 3.69238Z" fill="#070C2B"/>
<rect x="7.88672" y="10.9553" width="3.4793" height="1.82559" rx="0.2" fill="#070C2B"/>
<rect x="12.2227" y="10.9553" width="3.4793" height="1.82559" rx="0.2" fill="#070C2B"/>
<rect x="7.88672" y="13.594" width="3.4793" height="1.82559" rx="0.2" fill="#070C2B"/>
<rect x="12.2227" y="13.594" width="3.4793" height="1.82559" rx="0.2" fill="#070C2B"/>
<rect x="7.88672" y="16.2329" width="3.4793" height="1.82559" rx="0.2" fill="#070C2B"/>
<rect x="12.2227" y="16.2329" width="3.4793" height="1.82559" rx="0.2" fill="#070C2B"/>
</svg>
