<svg width="22" height="18" viewBox="0 0 22 18" fill="none" xmlns="http://www.w3.org/2000/svg">
<path d="M11.0001 4.69073C8.51886 4.69073 6.47876 6.60903 6.47876 9.00034C6.47876 11.3654 8.49129 13.3099 11.0001 13.3099C13.4813 13.3099 15.5214 11.3916 15.5214 9.00034C15.5214 6.63531 13.4813 4.69073 11.0001 4.69073ZM11.0001 11.8646C9.34593 11.8646 7.99505 10.577 7.99505 9.00034C7.99505 7.42365 9.34593 6.13603 11.0001 6.13603C12.6542 6.13603 14.0051 7.42365 14.0051 9.00034C14.0326 10.577 12.6818 11.8646 11.0001 11.8646Z" fill="#070C2B"/>
<path d="M21.614 7.65981C21.1178 6.84519 20.2356 5.76779 19.2982 4.74294C17.4787 2.77209 14.8872 0.538452 11 0.538452C7.11278 0.538452 4.5213 2.77209 2.70175 4.74294C1.76441 5.76779 0.882205 6.84519 0.385965 7.65981C0.137845 8.08026 0 8.52699 0 8.99999C0 9.473 0.137845 9.91972 0.385965 10.3402C0.882205 11.1548 1.76441 12.2322 2.70175 13.257C4.5213 15.2279 7.11278 17.4615 11 17.4615C14.8872 17.4615 17.4787 15.2279 19.2982 13.257C20.2356 12.2322 21.1178 11.1548 21.614 10.3402C21.8622 9.91972 22 9.473 22 8.99999C22 8.52699 21.8622 8.08026 21.614 7.65981ZM20.2907 9.60439C19.8496 10.3402 19.0226 11.365 18.1404 12.311C16.4311 14.1505 14.2531 15.99 11 16.0162C7.74687 15.99 5.56892 14.1505 3.85965 12.311C2.97744 11.365 2.15038 10.3402 1.70927 9.60439C1.599 9.42044 1.51629 9.21022 1.51629 8.99999C1.51629 8.78977 1.57143 8.57954 1.70927 8.3956C2.15038 7.65981 2.97744 6.63496 3.85965 5.68895C5.56892 3.84949 7.74687 2.01002 11 1.98375C14.2531 2.01002 16.4311 3.84949 18.1404 5.68895C19.0226 6.63496 19.8496 7.65981 20.2907 8.3956C20.401 8.57954 20.4837 8.78977 20.4837 8.99999C20.4837 9.21022 20.4286 9.42044 20.2907 9.60439Z" fill="#070C2B"/>
</svg>
