<svg width="26" height="24" viewBox="0 0 26 24" fill="none" xmlns="http://www.w3.org/2000/svg">
<path fill-rule="evenodd" clip-rule="evenodd" d="M13.0785 0.808289C14.006 0.807836 14.9248 0.98489 15.7831 1.32952C18.3023 2.33667 19.8047 3.7371 20.2045 4.12563L20.2071 4.12817C20.6597 4.57197 21.0787 5.04744 21.4609 5.55083L21.4708 5.56388C21.6617 5.8263 21.7233 6.10342 21.7419 6.32136C21.7719 6.67203 21.6003 6.89877 21.9728 6.75364C22.1022 6.70324 22.2401 6.67736 22.3792 6.67733C22.5216 6.67569 22.6631 6.70138 22.7956 6.753C22.9331 6.80656 23.058 6.88691 23.1628 6.98918L23.1644 6.99072L24.9106 8.68676L24.929 8.70516C25.1244 8.90757 25.2333 9.17564 25.2333 9.45429C25.2333 9.73295 25.1244 10.001 24.929 10.2034L24.9101 10.2224L22.0758 12.9698C21.8701 13.1639 21.5958 13.2722 21.3107 13.2723C21.169 13.2738 21.0283 13.2483 20.8964 13.1972C20.7595 13.1442 20.6349 13.0647 20.53 12.9635L20.5283 12.9618L18.7816 11.2653C18.6785 11.1656 18.5955 11.0457 18.5395 10.9148C18.4833 10.7834 18.4544 10.6423 18.4544 10.4998C18.4544 10.3573 18.4833 10.2163 18.5395 10.0849C18.5957 9.95345 18.6779 9.8343 18.7816 9.73435L18.7934 9.72298L18.8861 9.63734C18.8958 9.62686 18.9017 9.61271 18.9021 9.59788C18.9022 9.59394 18.9018 9.59089 18.9014 9.58875C18.7251 9.49275 18.5233 9.451 18.3222 9.46907C18.2371 9.47882 17.9574 9.52969 17.5778 9.75877C17.1657 10.0074 16.3473 10.6986 15.6375 11.3733L15.6323 11.3782C15.4552 11.5436 15.2329 11.652 14.9949 11.6919C15.0363 11.9021 15.0411 12.119 15.0078 12.3332C14.9468 12.7254 14.7612 13.0887 14.4774 13.3716C14.319 13.5295 14.1564 13.6835 13.9963 13.8397C13.6545 14.1732 13.1768 14.6394 12.517 15.2756C10.5166 17.2131 7.1161 20.9215 5.63403 22.629L5.63205 22.6313C5.48507 22.7993 5.3042 22.9358 5.10083 23.032C4.89745 23.1283 4.67596 23.1823 4.45027 23.1906C4.22459 23.1989 3.99958 23.1614 3.78941 23.0804C3.57924 22.9993 3.38843 22.8766 3.22898 22.7198L3.22674 22.7176L1.23991 20.7488C1.08098 20.5918 0.956797 20.4038 0.875687 20.1974C0.794535 19.9909 0.758025 19.7701 0.768469 19.549C0.778914 19.3279 0.836085 19.1114 0.936364 18.9131C1.03645 18.7151 1.1773 18.5397 1.35002 18.3978C3.05756 16.9882 6.84004 13.6773 8.86692 11.712C9.72351 10.8824 10.2755 10.3505 10.6276 10.0112C10.7151 9.92676 10.7904 9.85426 10.8549 9.79204C11.1241 9.53041 11.4676 9.35454 11.8406 9.28749C12.0581 9.24839 12.2797 9.24738 12.4954 9.28328C12.529 9.05451 12.6301 8.83858 12.7885 8.66323C13.1658 8.24553 13.5265 7.80922 13.785 7.39472C14.0573 6.95827 14.1443 6.65803 14.136 6.48684C14.0886 5.53073 13.802 4.90511 13.2068 4.43574C12.8303 4.14762 12.0329 3.83497 11.3847 3.7823C11.0695 3.7565 10.7517 3.77608 10.4423 3.8405C10.2903 3.87497 10.1407 3.91853 9.9941 3.97092C9.65739 4.09131 9.27994 3.9821 9.06392 3.70177C8.72637 3.26376 8.97871 2.82807 9.27608 2.47067C9.40004 2.32169 9.58281 2.11384 9.77771 1.94078C10.2905 1.48251 11.5143 0.808421 13.0785 0.808289ZM12.6866 2.42716C14.5144 3.00257 15.6683 4.45862 15.765 6.4098C15.7974 7.07234 15.4964 7.71573 15.1765 8.22853C14.9136 8.65012 14.5873 9.06196 14.266 9.43325L14.7951 9.95162C15.4531 9.34551 16.22 8.70089 16.7227 8.39752C17.3282 8.03221 17.8455 7.91192 18.1502 7.87944L18.1597 7.87843C18.7054 7.8266 19.2539 7.94291 19.7289 8.21102C19.8531 8.28033 19.9667 8.36654 20.0662 8.46709L20.062 8.46289C20.6244 9.02264 20.6659 9.85509 20.2793 10.4696L21.3065 11.4672L23.3835 9.45393L22.3134 8.41464C22.2829 8.42732 22.2519 8.43895 22.2204 8.44951C22.0205 8.51662 21.8076 8.53837 21.5979 8.51317C21.3034 8.48083 20.8459 8.38098 20.498 8.05103L20.4943 8.04747C20.2382 7.80151 20.143 7.50931 20.1103 7.27427C20.0816 7.06802 20.0966 6.86301 20.1055 6.74139L20.1064 6.72899C20.1186 6.56097 20.1168 6.48492 20.1167 6.45828C19.7917 6.03487 19.4369 5.63428 19.0548 5.25946C18.7327 4.94653 17.4073 3.70501 15.166 2.80921C14.5041 2.54343 13.7943 2.40642 13.0789 2.40681C12.9441 2.40681 12.8128 2.41405 12.6866 2.42716ZM12.2815 10.8766C12.2354 10.8568 12.1843 10.8509 12.1348 10.8598C12.0849 10.8688 12.039 10.8923 12.003 10.9273L12.0002 10.9301C11.9351 10.9929 11.8592 11.066 11.7709 11.1512C11.4187 11.4906 10.8687 12.0206 10.0136 12.8487C7.9471 14.8524 4.12974 18.1931 2.39967 19.6213L2.39768 19.6229L4.38405 21.5913L4.38632 21.5927L4.38899 21.5932L4.39162 21.5925L4.39355 21.5912C5.89281 19.8641 9.3256 16.1192 11.3713 14.1379L11.3726 14.1367C11.8908 13.637 12.2951 13.2437 12.6112 12.9355C12.6936 12.8552 12.7703 12.7803 12.8417 12.7106C13.0391 12.518 13.1954 12.3655 13.3178 12.2475C13.3592 12.2049 13.3864 12.1507 13.3954 12.0924C13.4042 12.036 13.3957 11.9783 13.371 11.9268C13.15 11.5569 12.6729 11.0509 12.2815 10.8766Z" fill="#070C2B"/>
</svg>
