<svg width="22" height="24" viewBox="0 0 22 24" fill="none" xmlns="http://www.w3.org/2000/svg">
<path fill-rule="evenodd" clip-rule="evenodd" d="M5.11495 4.62541C3.54835 6.19383 2.66834 8.32001 2.66834 10.5369C2.66834 12.7553 3.54953 14.8828 5.11809 16.4516L10.0016 21.3351C10.0016 21.3351 10.0017 21.3351 10.0016 21.3351C10.2751 21.6084 10.646 21.7621 11.0327 21.7621C11.4193 21.7621 11.7901 21.6085 12.0636 21.3352C12.0636 21.3352 12.0636 21.3352 12.0636 21.3352L16.944 16.4548C18.4847 14.881 19.3427 12.7631 19.3316 10.5607C19.3204 8.3568 18.44 6.24636 16.8816 4.68797C15.3232 3.12957 13.2128 2.24915 11.0089 2.23802C8.80653 2.2269 6.68867 3.0848 5.11495 4.62541ZM3.8869 3.37865C5.79025 1.51336 8.35283 0.474585 11.0178 0.488044C13.6827 0.501504 16.2346 1.56611 18.1191 3.45053C20.0035 5.33495 21.0681 7.88689 21.0815 10.5518C21.095 13.2168 20.0562 15.7793 18.1909 17.6827L18.1848 17.689L13.3011 22.5726C12.6994 23.1741 11.8834 23.5121 11.0327 23.5121C10.1819 23.5121 9.36603 23.1742 8.76438 22.5727L3.88062 17.689C1.98391 15.7921 0.918335 13.2194 0.918335 10.5369C0.918335 7.85443 1.98388 5.2818 3.88059 3.3849L3.8869 3.37865Z" fill="#070C2B"/>
<path fill-rule="evenodd" clip-rule="evenodd" d="M11.0327 7.91193C9.58297 7.91193 8.40771 9.08718 8.40771 10.5369C8.40771 11.9867 9.58297 13.1619 11.0327 13.1619C12.4825 13.1619 13.6577 11.9867 13.6577 10.5369C13.6577 9.08718 12.4825 7.91193 11.0327 7.91193ZM6.65771 10.5369C6.65771 8.12068 8.61647 6.16193 11.0327 6.16193C13.449 6.16193 15.4077 8.12068 15.4077 10.5369C15.4077 12.9532 13.449 14.9119 11.0327 14.9119C8.61647 14.9119 6.65771 12.9532 6.65771 10.5369Z" fill="#070C2B"/>
</svg>
