<svg width="21" height="20" viewBox="0 0 21 20" fill="none" xmlns="http://www.w3.org/2000/svg">
<path fill-rule="evenodd" clip-rule="evenodd" d="M18.3511 2.91856C17.9606 3.30895 17.4711 3.45214 17.2579 3.23893C17.0445 3.0259 17.1878 2.53708 17.5786 2.14668C17.9689 1.75666 18.4582 1.61328 18.6718 1.82631C18.885 2.03971 18.7415 2.52853 18.3511 2.91856ZM8.43188 4.56501L15.9306 12.0568L17.7964 10.1928L16.6402 9.038C15.723 8.12163 15.723 6.63621 16.6402 5.71984C17.6631 4.69817 18.3508 4.94314 19.3643 3.93076C20.5315 2.76459 20.8512 1.19317 20.0783 0.421115C19.3053 -0.350943 17.7327 -0.031496 16.5654 1.13448C15.5521 2.14705 15.7973 2.83405 14.7747 3.85609C13.8575 4.77246 12.3708 4.77246 11.4538 3.85609L10.2977 2.70089L8.43188 4.56501Z" fill="#691BFF"/>
<path fill-rule="evenodd" clip-rule="evenodd" d="M8.01621 20C10.0162 17.9897 14.7667 13.2282 15.932 12.0554L8.4333 4.56305L0.5 12.4902L8.01621 20Z" fill="url(#paint0_linear_1014_31937)"/>
<defs>
<linearGradient id="paint0_linear_1014_31937" x1="13.1862" y1="7.33339" x2="4.42822" y2="16.0692" gradientUnits="userSpaceOnUse">
<stop stop-color="#F97DFF"/>
<stop offset="1" stop-color="#FFD0F7" stop-opacity="0"/>
</linearGradient>
</defs>
</svg>
