<svg width="18" height="20" viewBox="0 0 18 20" fill="none" xmlns="http://www.w3.org/2000/svg">
<path fill-rule="evenodd" clip-rule="evenodd" d="M7.51001 3.22C6.88901 3.388 6.309 3.651 5.905 4.015C4.802 5.01 4.35301 6.358 4.35301 8.788C4.35301 10.52 3.36701 12.16 2.65701 13.222C2.50301 13.454 2.45501 13.675 2.46401 13.808C2.46801 13.868 2.48201 13.896 2.48801 13.906C2.49201 13.913 2.50401 13.932 2.55201 13.958C3.24401 14.328 4.28801 14.598 5.49501 14.769C6.6568 14.9249 7.8278 15.0021 9.00001 15C9.26522 15 9.51958 15.1054 9.70711 15.2929C9.89465 15.4804 10 15.7348 10 16C10 16.2652 9.89465 16.5196 9.70711 16.7071C9.51958 16.8946 9.26522 17 9.00001 17C7.87201 17 6.51601 16.935 5.214 16.75C3.932 16.567 2.61101 16.257 1.60901 15.722C0.872006 15.328 0.516006 14.642 0.469006 13.943C0.423006 13.284 0.646005 12.633 0.994005 12.112C1.71101 11.038 2.35301 9.853 2.35301 8.788C2.35301 6.127 2.84501 4.081 4.56601 2.53C5.29101 1.876 6.202 1.503 6.985 1.29C7.64158 1.10792 8.31873 1.01046 9.00001 1C9.26522 1 9.51958 1.10536 9.70711 1.29289C9.89465 1.48043 10 1.73478 10 2C10 2.26522 9.89465 2.51957 9.70711 2.70711C9.51958 2.89464 9.26522 3 9.00001 3C8.69401 3 8.12401 3.052 7.51001 3.22Z" fill="#070C2B"/>
<path fill-rule="evenodd" clip-rule="evenodd" d="M10.49 3.22C11.111 3.388 11.691 3.651 12.095 4.015C13.198 5.01 13.647 6.358 13.647 8.788C13.647 10.52 14.633 12.16 15.343 13.222C15.497 13.454 15.545 13.675 15.536 13.808C15.5365 13.8422 15.5282 13.8759 15.512 13.906C15.508 13.913 15.496 13.932 15.448 13.958C14.756 14.328 13.712 14.598 12.505 14.769C11.3432 14.9249 10.1722 15.0021 9 15C8.73478 15 8.48043 15.1054 8.29289 15.2929C8.10536 15.4804 8 15.7348 8 16C8 16.2652 8.10536 16.5196 8.29289 16.7071C8.48043 16.8946 8.73478 17 9 17C10.128 17 11.483 16.935 12.786 16.75C14.068 16.567 15.389 16.257 16.391 15.722C17.128 15.328 17.484 14.642 17.531 13.943C17.577 13.284 17.354 12.633 17.006 12.112C16.289 11.038 15.647 9.853 15.647 8.788C15.647 6.127 15.155 4.081 13.434 2.53C12.709 1.876 11.798 1.503 11.015 1.29C10.3584 1.10792 9.68128 1.01046 9 1C8.73478 1 8.48043 1.10536 8.29289 1.29289C8.10536 1.48043 8 1.73478 8 2C8 2.26522 8.10536 2.51957 8.29289 2.70711C8.48043 2.89464 8.73478 3 9 3C9.306 3 9.876 3.052 10.49 3.22Z" fill="#070C2B"/>
<path d="M11.647 1.68C11.647 2.375 10.251 1.722 9.14697 1.722C8.04297 1.722 6.64697 2.375 6.64697 1.679C6.64697 0.984 7.64697 0 9.14697 0C10.647 0 11.647 0.984 11.647 1.68Z" fill="#070C2B"/>
<path fill-rule="evenodd" clip-rule="evenodd" d="M7 16C7 16.5304 7.21071 17.0391 7.58579 17.4142C7.96086 17.7893 8.46957 18 9 18C9.53043 18 10.0391 17.7893 10.4142 17.4142C10.7893 17.0391 11 16.5304 11 16H13C13 17.0609 12.5786 18.0783 11.8284 18.8284C11.0783 19.5786 10.0609 20 9 20C7.93913 20 6.92172 19.5786 6.17157 18.8284C5.42143 18.0783 5 17.0609 5 16H7Z" fill="#070C2B"/>
</svg>
