<svg width="20" height="20" viewBox="0 0 20 20" fill="none" xmlns="http://www.w3.org/2000/svg">
<path d="M15.1427 6.57183C15.1427 7.02649 14.9621 7.46252 14.6406 7.78401C14.3191 8.1055 13.8831 8.28612 13.4284 8.28612C12.9737 8.28612 12.5377 8.1055 12.2162 7.78401C11.8947 7.46252 11.7141 7.02649 11.7141 6.57183C11.7141 6.11717 11.8947 5.68114 12.2162 5.35965C12.5377 5.03816 12.9737 4.85754 13.4284 4.85754C13.8831 4.85754 14.3191 5.03816 14.6406 5.35965C14.9621 5.68114 15.1427 6.11717 15.1427 6.57183Z" fill="#070C2B"/>
<path fill-rule="evenodd" clip-rule="evenodd" d="M9.95107 0.786136H10.0488C12.0279 0.786136 13.5785 0.786136 14.7888 0.948993C16.0265 1.11528 17.0036 1.46328 17.7708 2.22956C18.5379 2.99671 18.8851 3.97385 19.0514 5.21242C19.2142 6.42185 19.2142 7.97242 19.2142 9.95156V10.027C19.2142 11.6633 19.2142 13.0021 19.1251 14.0924C19.0359 15.1896 18.8534 16.1041 18.4436 16.8653C18.2642 17.2001 18.0399 17.5021 17.7708 17.7713C17.0036 18.5384 16.0265 18.8856 14.7879 19.0518C13.5785 19.2147 12.0279 19.2147 10.0488 19.2147H9.95107C7.97193 19.2147 6.42136 19.2147 5.21107 19.0518C3.97336 18.8856 2.99622 18.5376 2.22907 17.7713C1.54936 17.0916 1.19793 16.2456 1.01193 15.1947C0.827645 14.1636 0.794216 12.8804 0.787359 11.2879C0.786216 10.8821 0.785645 10.453 0.785645 10.0004V9.95071C0.785645 7.97156 0.785645 6.42099 0.948502 5.21071C1.11479 3.97299 1.46279 2.99585 2.22907 2.22871C2.99622 1.46156 3.97336 1.11442 5.21193 0.948136C6.42136 0.785278 7.97193 0.785278 9.95107 0.785278M5.3825 2.22185C4.28707 2.36928 3.62622 2.65042 3.1385 3.13814C2.64993 3.62671 2.36964 4.28671 2.22222 5.38299C2.07307 6.49728 2.07136 7.96128 2.07136 9.99956V10.723L2.92936 9.97214C3.30571 9.64269 3.79321 9.46862 4.2931 9.48517C4.793 9.50172 5.26791 9.70766 5.62164 10.0613L9.29879 13.7384C9.58414 14.0237 9.96097 14.1992 10.363 14.234C10.765 14.2688 11.1664 14.1607 11.4965 13.9287L11.7519 13.7487C12.2282 13.414 12.804 13.2509 13.3851 13.2859C13.9662 13.3209 14.5181 13.5521 14.9508 13.9416L17.3765 16.1247C17.6216 15.6121 17.7665 14.9384 17.8436 13.9879C17.9276 12.955 17.9285 11.6676 17.9285 9.99956C17.9285 7.96128 17.9268 6.49728 17.7776 5.38299C17.6302 4.28671 17.3491 3.62585 16.8614 3.13728C16.3728 2.64956 15.7128 2.36928 14.6165 2.22185C13.5022 2.07271 12.0382 2.07099 9.99993 2.07099C7.96164 2.07099 6.49679 2.07271 5.3825 2.22185Z" fill="#070C2B"/>
</svg>
