<svg width="19" height="23" viewBox="0 0 19 23" fill="none" xmlns="http://www.w3.org/2000/svg">
<path d="M1.51641 12.7804L8.79257 3.65413C10.2299 1.8513 12.8289 1.29908 14.7606 2.55704C15.2772 2.89209 15.7179 3.33153 16.0544 3.84709C16.391 4.36266 16.6159 4.94295 16.7148 5.55065C16.8136 6.15836 16.7842 6.78002 16.6285 7.37568C16.4727 7.97134 16.194 8.52781 15.8103 9.00932L7.30997 19.6711C6.40905 20.8011 4.77981 21.1811 3.56902 20.3992C3.24322 20.1909 2.96486 19.9164 2.75203 19.5935C2.5392 19.2706 2.39664 18.9066 2.33361 18.5251C2.27059 18.1435 2.28851 17.753 2.3862 17.3788C2.4839 17.0047 2.65918 16.6552 2.90069 16.3532L10.1218 7.29588C10.5001 6.82145 11.1977 6.74275 11.6722 7.121C12.1466 7.49925 12.2253 8.1969 11.847 8.67133L5.82941 16.2191C5.54744 16.5728 5.6069 17.0999 5.96057 17.3818C6.31423 17.6638 6.84135 17.6043 7.12331 17.2507L13.0447 9.82369C13.9456 8.69368 13.9531 7.02072 12.9212 6.01454C12.6455 5.74333 12.3159 5.53311 11.9537 5.39755C11.5915 5.26199 11.2049 5.2041 10.8189 5.22765C10.4329 5.25121 10.0562 5.35567 9.71319 5.53426C9.37019 5.71284 9.06857 5.96157 8.82793 6.26428L1.7237 15.1749C0.286348 16.9778 0.326954 19.6344 1.98362 21.2374C2.42474 21.6675 2.95116 22.0002 3.52887 22.2141C4.10659 22.428 4.72275 22.5184 5.33756 22.4794C5.95237 22.4404 6.55217 22.2728 7.0982 21.9876C7.64424 21.7024 8.12437 21.3058 8.50759 20.8234L16.946 10.2393C18.9198 7.76364 18.8758 4.10253 16.5944 1.90272C15.9863 1.31257 15.2614 0.856204 14.4664 0.562981C13.6713 0.269758 12.8237 0.146165 11.978 0.20015C11.1324 0.254135 10.3073 0.484502 9.55602 0.876439C8.8047 1.26838 8.14372 1.81321 7.61559 2.4759L0.22251 11.7489C-0.0594591 12.1025 -2.46539e-06 12.6296 0.353664 12.9116C0.70733 13.1936 1.23444 13.1341 1.51641 12.7804Z" fill="#070C2B"/>
</svg>
