<svg width="18" height="18" viewBox="0 0 18 18" fill="none" xmlns="http://www.w3.org/2000/svg">
<path d="M14.9992 4.71418H14.142V0.428467H3.85631V4.71418H2.99916C1.58145 4.71418 0.427734 5.8679 0.427734 7.28561V13.2856C0.427734 14.231 1.19659 14.9999 2.14202 14.9999H3.85631V17.5713H14.142V14.9999H15.8563C16.8017 14.9999 17.5706 14.231 17.5706 13.2856V7.28561C17.5706 5.8679 16.4169 4.71418 14.9992 4.71418ZM5.57059 2.14275H12.4277V4.71418H5.57059V2.14275ZM12.4277 15.857H5.57059V12.4285H12.4277V15.857ZM15.8563 13.2856H14.142V10.7142H3.85631V13.2856H2.14202V7.28561C2.14202 6.81332 2.52688 6.42847 2.99916 6.42847H14.9992C15.4723 6.42847 15.8563 6.81332 15.8563 7.28561V13.2856Z" fill="#070C2B"/>
</svg>
