<svg width="18" height="22" viewBox="0 0 18 22" fill="none" xmlns="http://www.w3.org/2000/svg">
<path fill-rule="evenodd" clip-rule="evenodd" d="M0.654785 2.65486C0.654785 1.63066 1.48506 0.800385 2.50926 0.800385H15.4906C16.5148 0.800385 17.3451 1.63066 17.3451 2.65486V19.3451C17.3451 20.3693 16.5148 21.1996 15.4906 21.1996H2.50926C1.48506 21.1996 0.654785 20.3693 0.654785 19.3451V2.65486ZM15.4906 2.65486H2.50926V19.3451H15.4906V2.65486Z" fill="#070C2B"/>
<path fill-rule="evenodd" clip-rule="evenodd" d="M6.68152 6.36382C6.68152 5.85172 7.09666 5.43658 7.60876 5.43658H13.1722C13.6843 5.43658 14.0994 5.85172 14.0994 6.36382C14.0994 6.87592 13.6843 7.29106 13.1722 7.29106H7.60876C7.09666 7.29106 6.68152 6.87592 6.68152 6.36382ZM6.68152 11C6.68152 10.4879 7.09666 10.0728 7.60876 10.0728H13.1722C13.6843 10.0728 14.0994 10.4879 14.0994 11C14.0994 11.5121 13.6843 11.9272 13.1722 11.9272H7.60876C7.09666 11.9272 6.68152 11.5121 6.68152 11ZM6.68152 15.6362C6.68152 15.1241 7.09666 14.709 7.60876 14.709H13.1722C13.6843 14.709 14.0994 15.1241 14.0994 15.6362C14.0994 16.1483 13.6843 16.5634 13.1722 16.5634H7.60876C7.09666 16.5634 6.68152 16.1483 6.68152 15.6362Z" fill="#070C2B"/>
<path fill-rule="evenodd" clip-rule="evenodd" d="M4.82604 7.29106C5.07196 7.29106 5.30781 7.19337 5.4817 7.01948C5.65559 6.84559 5.75328 6.60974 5.75328 6.36382C5.75328 6.1179 5.65559 5.88206 5.4817 5.70817C5.30781 5.53428 5.07196 5.43658 4.82604 5.43658C4.58012 5.43658 4.34428 5.53428 4.17039 5.70817C3.99649 5.88206 3.8988 6.1179 3.8988 6.36382C3.8988 6.60974 3.99649 6.84559 4.17039 7.01948C4.34428 7.19337 4.58012 7.29106 4.82604 7.29106ZM4.82604 11.9272C5.07196 11.9272 5.30781 11.8296 5.4817 11.6557C5.65559 11.4818 5.75328 11.2459 5.75328 11C5.75328 10.7541 5.65559 10.5182 5.4817 10.3444C5.30781 10.1705 5.07196 10.0728 4.82604 10.0728C4.58012 10.0728 4.34428 10.1705 4.17039 10.3444C3.99649 10.5182 3.8988 10.7541 3.8988 11C3.8988 11.2459 3.99649 11.4818 4.17039 11.6557C4.34428 11.8296 4.58012 11.9272 4.82604 11.9272ZM4.82604 16.5634C5.07196 16.5634 5.30781 16.4657 5.4817 16.2919C5.65559 16.118 5.75328 15.8821 5.75328 15.6362C5.75328 15.3903 5.65559 15.1544 5.4817 14.9805C5.30781 14.8067 5.07196 14.709 4.82604 14.709C4.58012 14.709 4.34428 14.8067 4.17039 14.9805C3.99649 15.1544 3.8988 15.3903 3.8988 15.6362C3.8988 15.8821 3.99649 16.118 4.17039 16.2919C4.34428 16.4657 4.58012 16.5634 4.82604 16.5634Z" fill="#070C2B"/>
</svg>
