<svg width="28" height="28" viewBox="0 0 28 28" fill="none" xmlns="http://www.w3.org/2000/svg">
<path d="M14 10.2083C13.195 10.2083 12.5416 10.8617 12.5416 11.6667V11.7915C12.5416 12.0236 12.4494 12.2461 12.2853 12.4102C12.1212 12.5743 11.8987 12.6665 11.6666 12.6665C11.4346 12.6665 11.212 12.5743 11.0479 12.4102C10.8838 12.2461 10.7916 12.0236 10.7916 11.7915V11.6667C10.7916 10.8158 11.1296 9.99972 11.7313 9.39804C12.333 8.79636 13.1491 8.45834 14 8.45834H14.1353C14.7629 8.45863 15.3754 8.6511 15.8904 9.00985C16.4054 9.36861 16.7982 9.87646 17.016 10.4651C17.2337 11.0537 17.266 11.695 17.1085 12.3025C16.951 12.9101 16.6113 13.4548 16.135 13.8635L15.2366 14.6335C15.1239 14.7313 15.0334 14.8521 14.971 14.9877C14.9086 15.1233 14.8759 15.2706 14.875 15.4198V16.0417C14.875 16.2737 14.7828 16.4963 14.6187 16.6604C14.4546 16.8245 14.232 16.9167 14 16.9167C13.7679 16.9167 13.5453 16.8245 13.3812 16.6604C13.2171 16.4963 13.125 16.2737 13.125 16.0417V15.4198C13.125 14.6067 13.4796 13.8343 14.0968 13.3058L14.9963 12.5358C15.2015 12.3599 15.348 12.1253 15.4159 11.8637C15.4838 11.602 15.4699 11.3259 15.3761 11.0723C15.2823 10.8188 15.1131 10.6001 14.8913 10.4456C14.6695 10.2911 14.4056 10.2083 14.1353 10.2083H14ZM14 19.8333C14.3094 19.8333 14.6061 19.7104 14.8249 19.4916C15.0437 19.2728 15.1666 18.9761 15.1666 18.6667C15.1666 18.3573 15.0437 18.0605 14.8249 17.8417C14.6061 17.6229 14.3094 17.5 14 17.5C13.6905 17.5 13.3938 17.6229 13.175 17.8417C12.9562 18.0605 12.8333 18.3573 12.8333 18.6667C12.8333 18.9761 12.9562 19.2728 13.175 19.4916C13.3938 19.7104 13.6905 19.8333 14 19.8333Z" fill="black"/>
<path d="M3.79163 14C3.79163 11.2926 4.86714 8.69604 6.78158 6.78161C8.69601 4.86717 11.2925 3.79166 14 3.79166C16.7074 3.79166 19.3039 4.86717 21.2183 6.78161C23.1328 8.69604 24.2083 11.2926 24.2083 14C24.2083 16.7074 23.1328 19.3039 21.2183 21.2184C19.3039 23.1328 16.7074 24.2083 14 24.2083C11.2925 24.2083 8.69601 23.1328 6.78158 21.2184C4.86714 19.3039 3.79163 16.7074 3.79163 14ZM14 5.54166C12.8892 5.54166 11.7893 5.76044 10.7631 6.18551C9.73688 6.61058 8.80444 7.23362 8.01901 8.01904C7.23359 8.80447 6.61055 9.73691 6.18548 10.7631C5.76041 11.7893 5.54163 12.8892 5.54163 14C5.54163 15.1108 5.76041 16.2106 6.18548 17.2369C6.61055 18.2631 7.23359 19.1955 8.01901 19.9809C8.80444 20.7664 9.73688 21.3894 10.7631 21.8145C11.7893 22.2395 12.8892 22.4583 14 22.4583C16.2432 22.4583 18.3947 21.5672 19.9809 19.9809C21.5671 18.3947 22.4583 16.2433 22.4583 14C22.4583 11.7567 21.5671 9.60529 19.9809 8.01904C18.3947 6.4328 16.2432 5.54166 14 5.54166Z" fill="black"/>
</svg>
