<svg width="17" height="16" viewBox="0 0 17 16" fill="none" xmlns="http://www.w3.org/2000/svg">
<path fill-rule="evenodd" clip-rule="evenodd" d="M5.2377 12.7755C5.37381 12.7755 5.49797 12.724 5.59215 12.6397L5.63938 12.5935L7.51536 10.7175C7.61489 10.618 7.67082 10.4831 7.67084 10.3424C7.67087 10.2016 7.61498 10.0666 7.51549 9.96711C7.416 9.86759 7.28104 9.81166 7.14031 9.81163C6.99958 9.81161 6.8646 9.86749 6.76507 9.96698L5.76805 10.964L5.76805 3.75511C5.76805 3.61438 5.71215 3.47941 5.61264 3.37991C5.51313 3.2804 5.37817 3.22449 5.23744 3.22449C5.09671 3.22449 4.96175 3.2804 4.86224 3.37991C4.76273 3.47941 4.70683 3.61438 4.70683 3.75511L4.70683 10.9714L3.70264 9.96698C3.65336 9.91772 3.59486 9.87864 3.53048 9.85199C3.46609 9.82533 3.39709 9.81162 3.32741 9.81163C3.25772 9.81164 3.18873 9.82538 3.12435 9.85206C3.05998 9.87874 3.00149 9.91783 2.95223 9.96711C2.90296 10.0164 2.86389 10.0749 2.83723 10.1393C2.81058 10.2037 2.79686 10.2727 2.79687 10.3424C2.7969 10.4831 2.85283 10.618 2.95236 10.7175L4.82807 12.5932L4.86044 12.6232L4.8944 12.6498C4.98699 12.7283 5.10691 12.7755 5.2377 12.7755ZM13.6744 4.81633C13.8152 4.81633 13.9501 4.76043 14.0496 4.66092C14.1491 4.56141 14.2051 4.42644 14.2051 4.28572C14.2051 4.14499 14.1491 4.01003 14.0496 3.91052C13.9501 3.81101 13.8152 3.75511 13.6744 3.75511L7.30709 3.75511C7.16636 3.75511 7.0314 3.81101 6.93189 3.91052C6.83238 4.01003 6.77648 4.14499 6.77648 4.28572C6.77648 4.42644 6.83238 4.56141 6.93189 4.66092C7.0314 4.76043 7.16636 4.81633 7.30709 4.81633L13.6744 4.81633ZM11.552 6.93878C11.6927 6.93878 11.8277 6.88287 11.9272 6.78337C12.0267 6.68386 12.0826 6.54889 12.0826 6.40817C12.0826 6.26744 12.0267 6.13248 11.9272 6.03297C11.8277 5.93346 11.6927 5.87755 11.552 5.87755L7.30709 5.87755C7.16637 5.87755 7.0314 5.93346 6.93189 6.03297C6.83238 6.13248 6.77648 6.26744 6.77648 6.40817C6.77648 6.54889 6.83238 6.68386 6.93189 6.78337C7.0314 6.88288 7.16637 6.93878 7.30709 6.93878L11.552 6.93878ZM9.42954 9.06123C9.57027 9.06123 9.70523 9.00532 9.80474 8.90581C9.90425 8.80631 9.96015 8.67134 9.96015 8.53061C9.96015 8.38989 9.90425 8.25492 9.80474 8.15542C9.70523 8.05591 9.57027 8 9.42954 8L7.30709 8C7.16637 8 7.0314 8.05591 6.93189 8.15542C6.83238 8.25492 6.77648 8.38989 6.77648 8.53061C6.77648 8.67134 6.83238 8.80631 6.93189 8.90581C7.0314 9.00532 7.16637 9.06123 7.30709 9.06123L9.42954 9.06123Z" fill="#070C2B"/>
<circle cx="13.5" cy="13" r="3" fill="#E11F3F"/>
</svg>
