<svg width="25" height="24" viewBox="0 0 25 24" fill="none" xmlns="http://www.w3.org/2000/svg">
<g id="icons">
<path id="Vector" d="M10.4918 15.698C8.897 15.698 7.54742 15.1455 6.44306 14.0406C5.3387 12.9357 4.78623 11.5861 4.78564 9.99186C4.78506 8.39765 5.33753 7.04807 6.44306 5.94312C7.5486 4.83818 8.89817 4.28571 10.4918 4.28571C12.0854 4.28571 13.4353 4.83818 14.5414 5.94312C15.6475 7.04807 16.1997 8.39765 16.198 9.99186C16.198 10.6356 16.0955 11.2428 15.8907 11.8134C15.6859 12.3841 15.4079 12.8888 15.0567 13.3278L19.9728 18.2438C20.1337 18.4048 20.2142 18.6096 20.2142 18.8584C20.2142 19.1071 20.1337 19.3119 19.9728 19.4729C19.8119 19.6338 19.607 19.7143 19.3583 19.7143C19.1096 19.7143 18.9047 19.6338 18.7438 19.4729L13.8277 14.5568C13.3888 14.9079 12.884 15.1859 12.3134 15.3908C11.7428 15.5956 11.1356 15.698 10.4918 15.698ZM10.4918 13.9423C11.5891 13.9423 12.522 13.5584 13.2905 12.7905C14.0589 12.0227 14.4428 11.0898 14.4422 9.99186C14.4416 8.89394 14.0577 7.96135 13.2905 7.19409C12.5232 6.42683 11.5903 6.04262 10.4918 6.04145C9.39329 6.04028 8.4607 6.42449 7.69403 7.19409C6.92736 7.96369 6.54314 8.89628 6.54139 9.99186C6.53963 11.0874 6.92384 12.0203 7.69403 12.7905C8.46421 13.5607 9.3968 13.9446 10.4918 13.9423Z" fill="#070C2B"/>
</g>
</svg>
