<svg width="20" height="20" viewBox="0 0 20 20" fill="none" xmlns="http://www.w3.org/2000/svg">
<path fill-rule="evenodd" clip-rule="evenodd" d="M0.344841 0.24456C0.650394 -0.0204445 1.08549 -0.0752944 1.44726 0.105587L19.4473 9.10559C19.786 9.27498 20 9.62124 20 10C20 10.3788 19.786 10.725 19.4473 10.8944L1.44726 19.8944C1.08549 20.0753 0.650394 20.0205 0.344841 19.7555C0.0392886 19.4905 -0.0765426 19.0675 0.0513596 18.6838L2.94595 10L0.0513596 1.31624C-0.0765426 0.932535 0.0392886 0.509564 0.344841 0.24456ZM4.7208 11L2.71217 17.0259L16.764 10L2.71217 2.97411L4.7208 9.00001L10 9.00001C10.5523 9.00001 11 9.44773 11 10C11 10.5523 10.5523 11 10 11L4.7208 11Z" fill="#FCFDFF"/>
</svg>
