<svg width="26" height="26" viewBox="0 0 26 26" fill="none" xmlns="http://www.w3.org/2000/svg">
<path fill-rule="evenodd" clip-rule="evenodd" d="M11.4504 2.40725C11.9254 2.14551 12.4579 2.00574 13 2.00024C13.5421 2.00574 14.0746 2.14551 14.5496 2.40725C14.5575 2.41157 14.5652 2.41601 14.5729 2.42055L21.3642 6.42218C22.3713 6.98157 23 8.03802 23 9.19025V16.5268V16.5299C22.9981 17.0974 22.844 17.6541 22.5539 18.1419C22.269 18.6207 21.8633 19.016 21.3776 19.2884L14.5978 23.5744C14.5815 23.5847 14.5648 23.5945 14.548 23.6038C14.0736 23.8639 13.5411 24.0002 13 24.0002C12.4589 24.0002 11.9265 23.8639 11.452 23.6038C11.4351 23.5945 11.4185 23.5847 11.4022 23.5744L4.62238 19.2884C4.13666 19.016 3.73095 18.6207 3.44615 18.1419C3.15596 17.6541 3.0019 17.0974 3.00001 16.5299L3 16.5268V9.19025C3 8.03802 3.62872 6.98157 4.6358 6.42218L11.4271 2.42055C11.4348 2.41601 11.4425 2.41157 11.4504 2.40725ZM13 22.141C13.2199 22.141 13.4363 22.0877 13.6308 21.9857L20.4055 17.703C20.4219 17.6926 20.4386 17.6827 20.4556 17.6734C20.662 17.5604 20.8343 17.3941 20.9546 17.1919C21.0747 16.9901 21.1385 16.7598 21.1395 16.525V9.19025C21.1395 8.71812 20.8809 8.27826 20.4547 8.04414C20.4465 8.03963 20.4384 8.035 20.4303 8.03025L13.641 4.02977C13.4437 3.92318 13.224 3.86493 13 3.85969C12.776 3.86493 12.5563 3.92318 12.359 4.02977L5.56968 8.03025C5.56162 8.035 5.55349 8.03963 5.54528 8.04414C5.11906 8.27826 4.86047 8.71812 4.86047 9.19025V16.525C4.86149 16.7598 4.92533 16.9901 5.04539 17.1919C5.16567 17.3941 5.33797 17.5604 5.54438 17.6734C5.5614 17.6827 5.57812 17.6926 5.59452 17.703L12.3692 21.9857C12.5637 22.0877 12.7801 22.141 13 22.141Z" fill="#070C2B"/>
<path fill-rule="evenodd" clip-rule="evenodd" d="M10.1716 10.1718C10.9217 9.42167 11.9391 9.00024 13 9.00024C14.0609 9.00024 15.0783 9.42167 15.8284 10.1718C16.5785 10.922 17 11.9394 17 13.0002C17 14.0611 16.5785 15.0786 15.8284 15.8287C15.0783 16.5788 14.0609 17.0002 13 17.0002C11.9391 17.0002 10.9217 16.5788 10.1716 15.8287C9.42143 15.0786 9 14.0611 9 13.0002C9 11.9394 9.42143 10.922 10.1716 10.1718ZM13 10.8826C12.4384 10.8826 11.8997 11.1057 11.5026 11.5028C11.1055 11.9 10.8824 12.4386 10.8824 13.0002C10.8824 13.5618 11.1055 14.1005 11.5026 14.4977C11.8997 14.8947 12.4384 15.1179 13 15.1179C13.5616 15.1179 14.1002 14.8947 14.4974 14.4977C14.8945 14.1005 15.1176 13.5618 15.1176 13.0002C15.1176 12.4386 14.8945 11.9 14.4974 11.5028C14.1002 11.1057 13.5616 10.8826 13 10.8826Z" fill="#070C2B"/>
</svg>
