<svg width="18" height="18" viewBox="0 0 18 18" fill="none" xmlns="http://www.w3.org/2000/svg">
<path d="M15.8573 0.427734C16.3119 0.427734 16.748 0.608346 17.0695 0.929837C17.391 1.25133 17.5716 1.68736 17.5716 2.14202V12.4277C17.5716 12.8824 17.391 13.3184 17.0695 13.6399C16.748 13.9614 16.3119 14.142 15.8573 14.142H13.2859V15.8563C13.2859 16.311 13.1052 16.747 12.7838 17.0685C12.4623 17.39 12.0262 17.5706 11.5716 17.5706H2.143C1.68834 17.5706 1.2523 17.39 0.930813 17.0685C0.609323 16.747 0.428711 16.311 0.428711 15.8563V6.42773C0.428711 5.97308 0.609323 5.53704 0.930813 5.21555C1.2523 4.89406 1.68834 4.71345 2.143 4.71345H3.85728V2.14202C3.85728 1.68736 4.03789 1.25133 4.35938 0.929837C4.68088 0.608346 5.11691 0.427734 5.57157 0.427734H15.8573ZM3.85728 6.42773H2.143V15.8563H11.5716V14.142H5.57157C5.11691 14.142 4.68088 13.9614 4.35938 13.6399C4.03789 13.3184 3.85728 12.8824 3.85728 12.4277V6.42773ZM15.8573 2.14202H5.57157V12.4277H15.8573V2.14202ZM14.0487 4.91316C14.2094 5.0739 14.2997 5.29188 14.2997 5.51916C14.2997 5.74645 14.2094 5.96443 14.0487 6.12516L10.4719 9.70116C10.3843 9.78876 10.2803 9.85825 10.1659 9.90566C10.0515 9.95307 9.92885 9.97748 9.805 9.97748C9.68114 9.97748 9.5585 9.95307 9.44408 9.90566C9.32966 9.85825 9.2257 9.78876 9.13814 9.70116L7.381 7.94402C7.22016 7.7833 7.12976 7.56527 7.12968 7.33789C7.1296 7.11052 7.21985 6.89243 7.38057 6.73159C7.54129 6.57076 7.75932 6.48036 7.98669 6.48027C8.21407 6.48019 8.43216 6.57044 8.593 6.73116L9.805 7.94316L12.8359 4.91316C12.9966 4.75247 13.2146 4.6622 13.4419 4.6622C13.6691 4.6622 13.888 4.75247 14.0487 4.91316Z" fill="#070C2B"/>
</svg>
