<svg width="18" height="16" viewBox="0 0 18 16" fill="none" xmlns="http://www.w3.org/2000/svg">
<path fill-rule="evenodd" clip-rule="evenodd" d="M4.10558 15.1641C4.30973 15.1641 4.49598 15.0869 4.63725 14.9603L4.70809 14.8911L7.52206 12.0771C7.67135 11.9279 7.75525 11.7254 7.75529 11.5143C7.75532 11.3032 7.6715 11.1008 7.52226 10.9515C7.37302 10.8022 7.17058 10.7183 6.95949 10.7182C6.74839 10.7182 6.54593 10.802 6.39663 10.9513L4.9011 12.4468L4.9011 1.63345C4.9011 1.42236 4.81725 1.21992 4.66798 1.07065C4.51872 0.921389 4.31627 0.837534 4.10518 0.837534C3.89409 0.837534 3.69165 0.921389 3.54238 1.07065C3.39312 1.21992 3.30926 1.42236 3.30926 1.63345L3.30926 12.4579L1.80299 10.9513C1.72907 10.8774 1.64131 10.8188 1.54474 10.7788C1.44816 10.7388 1.34466 10.7182 1.24013 10.7182C1.13561 10.7183 1.03211 10.7389 0.935552 10.7789C0.838991 10.8189 0.751258 10.8775 0.677361 10.9515C0.603464 11.0254 0.544852 11.1131 0.504869 11.2097C0.464886 11.3063 0.444317 11.4098 0.444336 11.5143C0.444373 11.7254 0.528266 11.9279 0.67756 12.0771L3.49113 14.8907L3.53968 14.9356L3.59062 14.9754C3.72951 15.0932 3.90939 15.1641 4.10558 15.1641ZM16.7607 3.22529C16.9718 3.22529 17.1742 3.14143 17.3235 2.99217C17.4727 2.84291 17.5566 2.64046 17.5566 2.42937C17.5566 2.21828 17.4727 2.01583 17.3235 1.86657C17.1742 1.71731 16.9718 1.63345 16.7607 1.63345L7.20966 1.63345C6.99857 1.63345 6.79613 1.71731 6.64686 1.86657C6.4976 2.01583 6.41374 2.21828 6.41374 2.42937C6.41374 2.64046 6.4976 2.84291 6.64686 2.99217C6.79613 3.14143 6.99857 3.22529 7.20966 3.22529L16.7607 3.22529ZM13.577 6.40896C13.7881 6.40896 13.9905 6.32511 14.1398 6.17584C14.2891 6.02658 14.3729 5.82413 14.3729 5.61304C14.3729 5.40195 14.2891 5.19951 14.1398 5.05024C13.9905 4.90098 13.7881 4.81712 13.577 4.81712L7.20966 4.81712C6.99857 4.81712 6.79613 4.90098 6.64686 5.05024C6.4976 5.19951 6.41374 5.40195 6.41374 5.61304C6.41374 5.82413 6.4976 6.02658 6.64686 6.17584C6.79613 6.32511 6.99857 6.40896 7.20966 6.40896L13.577 6.40896ZM10.3933 9.59263C10.6044 9.59263 10.8069 9.50878 10.9561 9.35951C11.1054 9.21025 11.1893 9.00781 11.1893 8.79672C11.1893 8.58563 11.1054 8.38318 10.9561 8.23392C10.8069 8.08465 10.6044 8.0008 10.3933 8.0008L7.20966 8.0008C6.99857 8.0008 6.79613 8.08465 6.64686 8.23392C6.4976 8.38318 6.41374 8.58563 6.41374 8.79672C6.41374 9.00781 6.4976 9.21025 6.64686 9.35952C6.79613 9.50878 6.99857 9.59263 7.20966 9.59263L10.3933 9.59263Z" fill="#070C2B"/>
</svg>
