<svg width="25" height="24" viewBox="0 0 25 24" fill="none" xmlns="http://www.w3.org/2000/svg">
<g id="icons">
<path id="Vector (Stroke)" fill-rule="evenodd" clip-rule="evenodd" d="M11.8936 5.39387C12.2284 5.05914 12.7711 5.05914 13.1058 5.39387L15.6772 7.9653C16.012 8.30004 16.012 8.84275 15.6772 9.17749C15.3425 9.51222 14.7998 9.51222 14.4651 9.17749L13.3569 8.06929V14.1428C13.3569 14.6162 12.9731 15 12.4997 15C12.0263 15 11.6426 14.6162 11.6426 14.1428V8.06929L10.5344 9.17749C10.1996 9.51222 9.65694 9.51222 9.3222 9.17749C8.98747 8.84275 8.98747 8.30004 9.3222 7.9653L11.8936 5.39387ZM6.49972 12C6.97311 12 7.35686 12.3837 7.35686 12.8571V17.1428C7.35686 17.3702 7.44717 17.5882 7.60792 17.7489C7.76866 17.9097 7.98668 18 8.21401 18H16.7854C17.0128 18 17.2308 17.9097 17.3915 17.7489C17.5523 17.5882 17.6426 17.3702 17.6426 17.1428V12.8571C17.6426 12.3837 18.0263 12 18.4997 12C18.9731 12 19.3569 12.3837 19.3569 12.8571V17.1428C19.3569 17.8248 19.0859 18.4789 18.6037 18.9611C18.1215 19.4433 17.4674 19.7143 16.7854 19.7143H8.21401C7.53202 19.7143 6.87797 19.4433 6.39573 18.9611C5.9135 18.4789 5.64258 17.8248 5.64258 17.1428V12.8571C5.64258 12.3837 6.02633 12 6.49972 12Z" fill="#FCFDFF"/>
<path id="Vector (Stroke)_2" fill-rule="evenodd" clip-rule="evenodd" d="M11.8936 5.39387C12.2284 5.05914 12.7711 5.05914 13.1058 5.39387L15.6772 7.9653C16.012 8.30004 16.012 8.84275 15.6772 9.17749C15.3425 9.51222 14.7998 9.51222 14.4651 9.17749L13.3569 8.06929V14.1428C13.3569 14.6162 12.9731 15 12.4997 15C12.0263 15 11.6426 14.6162 11.6426 14.1428V8.06929L10.5344 9.17749C10.1996 9.51222 9.65694 9.51222 9.3222 9.17749C8.98747 8.84275 8.98747 8.30004 9.3222 7.9653L11.8936 5.39387ZM6.49972 12C6.97311 12 7.35686 12.3837 7.35686 12.8571V17.1428C7.35686 17.3702 7.44717 17.5882 7.60792 17.7489C7.76866 17.9097 7.98668 18 8.21401 18H16.7854C17.0128 18 17.2308 17.9097 17.3915 17.7489C17.5523 17.5882 17.6426 17.3702 17.6426 17.1428V12.8571C17.6426 12.3837 18.0263 12 18.4997 12C18.9731 12 19.3569 12.3837 19.3569 12.8571V17.1428C19.3569 17.8248 19.0859 18.4789 18.6037 18.9611C18.1215 19.4433 17.4674 19.7143 16.7854 19.7143H8.21401C7.53202 19.7143 6.87797 19.4433 6.39573 18.9611C5.9135 18.4789 5.64258 17.8248 5.64258 17.1428V12.8571C5.64258 12.3837 6.02633 12 6.49972 12Z" fill="#FCFDFF"/>
</g>
</svg>
