<svg width="18" height="20" viewBox="0 0 18 20" fill="none" xmlns="http://www.w3.org/2000/svg">
<path d="M11.28 1.53168e-05C11.6998 0.000124119 12.1088 0.132301 12.4493 0.377823C12.7898 0.623345 13.0444 0.969766 13.177 1.36802L13.72 3.00002H17C17.2652 3.00002 17.5196 3.10537 17.7071 3.29291C17.8946 3.48045 18 3.7348 18 4.00002C18 4.26523 17.8946 4.51959 17.7071 4.70712C17.5196 4.89466 17.2652 5.00002 17 5.00002L16.997 5.07102L16.13 17.214C16.0759 17.9706 15.7372 18.6787 15.182 19.1956C14.6269 19.7125 13.8965 19.9999 13.138 20H4.862C4.10346 19.9999 3.37311 19.7125 2.81797 19.1956C2.26283 18.6787 1.92411 17.9706 1.87 17.214L1.003 5.07002L1 5.00002C0.734784 5.00002 0.48043 4.89466 0.292893 4.70712C0.105357 4.51959 0 4.26523 0 4.00002C0 3.7348 0.105357 3.48045 0.292893 3.29291C0.48043 3.10537 0.734784 3.00002 1 3.00002H4.28L4.823 1.36802C4.9557 0.969604 5.21043 0.623067 5.5511 0.37753C5.89176 0.131994 6.30107 -8.58024e-05 6.721 1.53168e-05H11.28ZM14.997 5.00002H3.003L3.865 17.071C3.88295 17.3232 3.99577 17.5593 4.18076 17.7316C4.36574 17.904 4.60916 17.9999 4.862 18H13.138C13.3908 17.9999 13.6343 17.904 13.8192 17.7316C14.0042 17.5593 14.117 17.3232 14.135 17.071L14.997 5.00002ZM7 8.00002C7.24493 8.00005 7.48134 8.08997 7.66437 8.25273C7.84741 8.41549 7.96434 8.63976 7.993 8.88302L8 9.00002V14C7.99972 14.2549 7.90212 14.5 7.72715 14.6854C7.55218 14.8707 7.31305 14.9822 7.05861 14.9972C6.80416 15.0121 6.55362 14.9293 6.35817 14.7658C6.16271 14.6022 6.0371 14.3701 6.007 14.117L6 14V9.00002C6 8.7348 6.10536 8.48044 6.29289 8.29291C6.48043 8.10537 6.73478 8.00002 7 8.00002ZM11 8.00002C11.2652 8.00002 11.5196 8.10537 11.7071 8.29291C11.8946 8.48044 12 8.7348 12 9.00002V14C12 14.2652 11.8946 14.5196 11.7071 14.7071C11.5196 14.8947 11.2652 15 11 15C10.7348 15 10.4804 14.8947 10.2929 14.7071C10.1054 14.5196 10 14.2652 10 14V9.00002C10 8.7348 10.1054 8.48044 10.2929 8.29291C10.4804 8.10537 10.7348 8.00002 11 8.00002ZM11.28 2.00002H6.72L6.387 3.00002H11.613L11.28 2.00002Z" fill="#E11F3F"/>
</svg>
