<svg width="20" height="16" viewBox="0 0 20 16" fill="none" xmlns="http://www.w3.org/2000/svg">
<path d="M18.5769 3.52517L8.0586 14.7432C7.91902 14.8924 7.7532 15.0109 7.57065 15.0916C7.3881 15.1724 7.1924 15.214 6.99475 15.214C6.79711 15.214 6.6014 15.1724 6.41885 15.0916C6.2363 15.0109 6.07048 14.8924 5.93091 14.7432L1.42308 9.93548C1.28338 9.78648 1.17255 9.60959 1.09695 9.41491C1.02134 9.22023 0.982422 9.01157 0.982422 8.80085C0.982422 8.59014 1.02134 8.38148 1.09695 8.1868C1.17255 7.99212 1.28338 7.81523 1.42308 7.66623C1.70523 7.36531 2.08791 7.19625 2.48693 7.19625C2.6845 7.19625 2.88014 7.23776 3.06268 7.3184C3.24521 7.39903 3.41107 7.51723 3.55078 7.66623L6.99475 11.3425L16.4492 1.25593C16.7313 0.955006 17.114 0.78595 17.513 0.78595C17.912 0.78595 18.2947 0.955006 18.5769 1.25593C18.859 1.55685 19.0175 1.96498 19.0175 2.39055C19.0175 2.81612 18.859 3.22425 18.5769 3.52517Z" fill="#070C2B"/>
</svg>
